<svg width="320" height="320" viewBox="0 0 320 320" fill="none" xmlns="http://www.w3.org/2000/svg">
<path fill-rule="evenodd" clip-rule="evenodd" d="M160 320C248.366 320 320 248.366 320 160C320 71.6344 248.366 0 160 0C71.6344 0 0 71.6344 0 160C0 248.366 71.6344 320 160 320ZM160 310C242.843 310 310 242.843 310 160C310 77.1573 242.843 10 160 10C77.1573 10 10 77.1573 10 160C10 242.843 77.1573 310 160 310Z" fill="#9BD9D4"/>
<path d="M175.707 124.262C167.818 126.727 161.737 147.066 159.682 156.927C165.106 169.747 174.68 175.828 178.789 177.266C202.456 164.94 187 146.5 199 127C193.248 125.973 183.596 121.796 175.707 124.262Z" fill="#A5DADB"/>
<path d="M167.078 161.242C154.551 151.086 131.742 159.393 125.784 161.242C125.784 161.242 113.551 167.431 112.225 174.801C106.678 205.617 127.017 195.756 139.343 195.756C156.062 195.756 179.78 195.14 178.172 178.499C177.402 170.524 173.302 166.287 167.078 161.242Z" fill="#A5DADB"/>
<path d="M192.797 178.296C185.057 172.327 179.707 175.809 178 178.296L200.765 261H215.562C238.327 240.479 202.472 185.758 192.797 178.296Z" fill="#A5DADB"/>
<path d="M177.381 262C160.909 260.514 155.597 217.625 153 196.366C153 192.858 154.669 184.478 161.347 179.029C169.695 172.218 174.598 175.314 180.163 179.029C185.728 182.744 183.502 196.366 186.285 205.035C189.067 213.704 196.301 227.326 199.084 230.422C207.988 249.74 202.794 259.523 199.084 262H177.381Z" fill="#4DBBC8"/>
<path d="M108.911 250.808C125.182 249.821 135.002 213.828 137.878 195.954C126.045 195.954 113.636 191.434 108.911 189.174L83.0248 250.808C84.8738 251.218 92.6395 251.794 108.911 250.808Z" fill="#A5DADB"/>
<path d="M66.3838 224.922C73.7798 183.011 98.6385 174.588 110.143 175.615C116.923 179.929 118.156 191.023 115.69 191.64C113.726 192.131 106.709 209.371 103.404 218.036C103.377 218.108 103.358 218.183 103.348 218.26C99.8911 244.299 92.8814 252.452 89.8044 253.273H75.6288C65.7675 249.328 65.3566 232.729 66.3838 224.922Z" fill="#4DBBC8"/>
<path d="M112.609 174.999C99.2548 165.959 77.7243 142.95 98.433 123.227C98.433 121.378 91.0371 99.8064 94.7351 99.1901C98.433 98.5738 100.282 101.039 103.98 121.378C110.143 120.556 123.086 127.418 125.552 161.44C122.47 163.494 115.567 169.082 112.609 174.999Z" fill="#4DBBC8"/>
<path d="M200.585 56.8845C225.186 69.7388 211.617 100.383 201.758 114.098L177.371 115.401C174.859 90.5399 175.985 44.0302 200.585 56.8845Z" fill="#66C5D0"/>
<path d="M227.863 136.17C202.716 141.101 192.321 130.828 190.266 125.076C190.266 109.298 207.524 102.477 216.152 101.039C226.63 98.9846 250.051 89.9451 253.749 112.749C256.775 131.412 231.561 136.17 227.863 136.17Z" fill="#4DBBC8"/>
<path d="M148.492 102.311C159.935 134.966 184.137 129.231 194.807 122.282L196.166 108.498C176.641 66.7999 163.723 58.1369 159.704 59.0177C151.199 59.8421 137.049 69.6548 148.492 102.311Z" fill="#4DBBC8"/>
<path d="M75 249C73 247 69.6 241.1 72 233.5" stroke="white" stroke-width="2" stroke-linecap="round"/>
<path d="M239 101.347C241.806 101.699 248.111 104.273 250.878 111.747" stroke="white" stroke-width="2" stroke-linecap="round"/>
<path d="M117.498 177.018C117.707 174.197 119.955 167.77 127.279 164.625" stroke="white" stroke-width="2" stroke-linecap="round"/>
<path d="M95.7768 149.911C94.1202 147.619 91.7012 141.253 95.2787 134.131" stroke="white" stroke-width="2" stroke-linecap="round"/>
<path d="M259.5 102.193C256.7 100.993 254.667 105.693 254 108.193V113.693C257.6 120.893 262.167 120 263.5 117.5C263.667 113.667 262.3 103.393 259.5 102.193Z" fill="#4DBBC8" stroke="#4DBBC8" stroke-width="2" stroke-linecap="round"/>
<path d="M172.139 123.161C169.311 123.197 162.713 121.512 158.947 114.488" stroke="white" stroke-width="2" stroke-linecap="round"/>
</svg>
